<svg width="66" height="71" viewBox="0 0 66 71" fill="none" xmlns="http://www.w3.org/2000/svg">
<rect x="0.107269" y="0.908691" width="65.3813" height="70" rx="32.6906" fill="#FFA42F"/>
<path d="M32.3307 18.9087C23.318 18.9087 15.9854 26.7593 15.9854 36.4087C15.9854 46.0581 23.318 53.9087 32.3307 53.9087C35.2049 53.9087 38.0312 53.0991 40.5053 51.5663L38.4602 47.7788C36.6066 48.927 34.4866 49.5337 32.3307 49.5337C25.5707 49.5337 20.0717 43.6462 20.0717 36.4087C20.0717 29.1712 25.5707 23.2837 32.3307 23.2837C39.0907 23.2837 44.5897 29.1712 44.5897 36.4087V38.3142C44.5897 39.7455 43.7307 40.7837 42.5465 40.7837C41.4201 40.7837 40.5033 39.8021 40.5033 38.5961V29.8462H37.6789C36.2416 28.5018 34.3846 27.6587 32.3307 27.6587C27.8243 27.6587 24.158 31.584 24.158 36.4087C24.158 41.2334 27.8243 45.1587 32.3307 45.1587C34.4766 45.1587 36.4168 44.2502 37.8766 42.7966C39.0018 44.2283 40.6661 45.1587 42.5465 45.1587C45.9834 45.1587 48.676 42.152 48.676 38.3142V36.4087C48.676 26.7593 41.3434 18.9087 32.3307 18.9087ZM32.3307 40.7837C30.077 40.7837 28.2444 38.8215 28.2444 36.4087C28.2444 33.9958 30.0771 32.0337 32.3307 32.0337C34.5844 32.0337 36.417 33.9959 36.417 36.4087C36.417 38.8216 34.5844 40.7837 32.3307 40.7837Z" fill="white"/>
</svg>
